<?xml version="1.0" encoding="utf-8"?>
<!-- Generator: Adobe Illustrator 22.1.0, SVG Export Plug-In . SVG Version: 6.00 Build 0)  -->
<svg version="1.1" id="Camada_1" xmlns="http://www.w3.org/2000/svg" xmlns:xlink="http://www.w3.org/1999/xlink" x="0px" y="0px"
	 viewBox="0 0 480 480" style="enable-background:new 0 0 480 480;" xml:space="preserve">
<style type="text/css">
	.st0{fill:url(#SVGID_1_);}
	.st1{fill:url(#SVGID_2_);}
	.st2{fill:url(#SVGID_3_);}
	.st3{fill:url(#SVGID_4_);}
</style>
<linearGradient id="SVGID_1_" gradientUnits="userSpaceOnUse" x1="0" y1="240" x2="480" y2="240">
	<stop  offset="0" style="stop-color:#6600CC"/>
	<stop  offset="1" style="stop-color:#00ACE6"/>
</linearGradient>
<path class="st0" d="M456,0H24C10.7,0,0,10.7,0,24v432c0,13.3,10.7,24,24,24h432c13.3,0,24-10.7,24-24V24C480,10.7,469.3,0,456,0z
	 M118.7,275.6c-1.6-2.1-4-3.3-6.7-3.3s-5.1,1.2-6.7,3.3L16,409.6V144h448v240L334.4,211.2c-1.5-2-3.9-3.2-6.4-3.2s-4.9,1.2-6.4,3.2
	L191.4,384.7L118.7,275.6z M16,24c0-4.4,3.6-8,8-8h432c4.4,0,8,3.6,8,8v104H16V24z M24,464c-4.4,0-8-3.6-8-8v-17.6l96-144L225,464
	H24z M456,464H244.3l-43.5-65.2L328,229.3l136,181.3V456C464,460.4,460.4,464,456,464z"/>
<linearGradient id="SVGID_2_" gradientUnits="userSpaceOnUse" x1="40" y1="72" x2="104" y2="72">
	<stop  offset="0" style="stop-color:#6600CC"/>
	<stop  offset="1" style="stop-color:#00ACE6"/>
</linearGradient>
<path class="st1" d="M72,40c-17.7,0-32,14.3-32,32s14.3,32,32,32s32-14.3,32-32S89.7,40,72,40z M72,88c-8.8,0-16-7.2-16-16
	s7.2-16,16-16s16,7.2,16,16S80.8,88,72,88z"/>
<linearGradient id="SVGID_3_" gradientUnits="userSpaceOnUse" x1="128" y1="48" x2="440" y2="48">
	<stop  offset="0" style="stop-color:#6600CC"/>
	<stop  offset="1" style="stop-color:#00ACE6"/>
</linearGradient>
<path class="st2" d="M432,40H136c-4.4,0-8,3.6-8,8s3.6,8,8,8h296c4.4,0,8-3.6,8-8S436.4,40,432,40z"/>
<linearGradient id="SVGID_4_" gradientUnits="userSpaceOnUse" x1="128" y1="96" x2="440" y2="96">
	<stop  offset="0" style="stop-color:#6600CC"/>
	<stop  offset="1" style="stop-color:#00ACE6"/>
</linearGradient>
<path class="st3" d="M432,88H136c-4.4,0-8,3.6-8,8s3.6,8,8,8h296c4.4,0,8-3.6,8-8S436.4,88,432,88z"/>
</svg>
