<?xml version="1.0" encoding="utf-8"?>
<!-- Generator: Adobe Illustrator 22.1.0, SVG Export Plug-In . SVG Version: 6.00 Build 0)  -->
<svg version="1.1" id="Camada_1" xmlns="http://www.w3.org/2000/svg" xmlns:xlink="http://www.w3.org/1999/xlink" x="0px" y="0px"
	 viewBox="0 0 480 480" style="enable-background:new 0 0 480 480;" xml:space="preserve">
<style type="text/css">
	.st0{fill:url(#SVGID_1_);}
	.st1{fill:url(#SVGID_2_);}
	.st2{fill:url(#SVGID_3_);}
</style>
<linearGradient id="SVGID_1_" gradientUnits="userSpaceOnUse" x1="0" y1="240" x2="480" y2="240">
	<stop  offset="0" style="stop-color:#6600CC"/>
	<stop  offset="1" style="stop-color:#00ACE6"/>
</linearGradient>
<path class="st0" d="M440,80h-64c-13.3,0-24-10.7-24-24V40c0-22.1-17.9-40-40-40H168c-22.1,0-40,17.9-40,40v16c0,13.3-10.7,24-24,24
	v-8c0-13.3-10.7-24-24-24h-8c-13.3,0-24,10.7-24,24v8h-8C17.9,80,0,97.9,0,120v320c0,22.1,17.9,40,40,40h400c22.1,0,40-17.9,40-40
	V120C480,97.9,462.1,80,440,80z M64,72c0-4.4,3.6-8,8-8h8c4.4,0,8,3.6,8,8v8H64V72z M464,440c0,13.3-10.7,24-24,24H40
	c-13.3,0-24-10.7-24-24V120c0-13.3,10.7-24,24-24h64c22.1,0,40-17.9,40-40V40c0-13.3,10.7-24,24-24h144c13.3,0,24,10.7,24,24v16
	c0,22.1,17.9,40,40,40h64c13.3,0,24,10.7,24,24V440z"/>
<linearGradient id="SVGID_2_" gradientUnits="userSpaceOnUse" x1="72" y1="272" x2="408" y2="272">
	<stop  offset="0" style="stop-color:#6600CC"/>
	<stop  offset="1" style="stop-color:#00ACE6"/>
</linearGradient>
<path class="st1" d="M240,104c-92.8,0-168,75.2-168,168s75.2,168,168,168s168-75.2,168-168C407.9,179.3,332.7,104.1,240,104z
	 M240,424c-83.9,0-152-68.1-152-152s68.1-152,152-152s152,68.1,152,152C391.9,355.9,323.9,423.9,240,424z"/>
<linearGradient id="SVGID_3_" gradientUnits="userSpaceOnUse" x1="104" y1="272" x2="376" y2="272">
	<stop  offset="0" style="stop-color:#6600CC"/>
	<stop  offset="1" style="stop-color:#00ACE6"/>
</linearGradient>
<path class="st2" d="M240,136c-75.1,0-136,60.9-136,136s60.9,136,136,136s136-60.9,136-136C375.9,196.9,315.1,136.1,240,136z
	 M240,392c-66.3,0-120-53.7-120-120s53.7-120,120-120s120,53.7,120,120C359.9,338.2,306.2,391.9,240,392z"/>
<path d="M424,112c-13.3,0-24,10.7-24,24s10.7,24,24,24s24-10.7,24-24S437.3,112,424,112z M424,144c-4.4,0-8-3.6-8-8s3.6-8,8-8
	s8,3.6,8,8S428.4,144,424,144z"/>
</svg>
