<?xml version="1.0" encoding="utf-8"?>
<!-- Generator: Adobe Illustrator 22.1.0, SVG Export Plug-In . SVG Version: 6.00 Build 0)  -->
<svg version="1.1" id="Camada_1" xmlns="http://www.w3.org/2000/svg" xmlns:xlink="http://www.w3.org/1999/xlink" x="0px" y="0px"
	 viewBox="0 0 480 480" style="enable-background:new 0 0 480 480;" xml:space="preserve">
<style type="text/css">
	.st0{fill:url(#SVGID_1_);}
	.st1{fill:url(#SVGID_2_);}
	.st2{fill:url(#SVGID_3_);}
	.st3{fill:url(#SVGID_4_);}
	.st4{fill:url(#SVGID_5_);}
	.st5{fill:url(#SVGID_6_);}
	.st6{fill:url(#SVGID_7_);}
	.st7{fill:url(#SVGID_8_);}
	.st8{fill:url(#SVGID_9_);}
	.st9{fill:url(#SVGID_10_);}
	.st10{fill:url(#SVGID_11_);}
	.st11{fill:url(#SVGID_12_);}
	.st12{fill:url(#SVGID_13_);}
	.st13{fill:url(#SVGID_14_);}
	.st14{fill:url(#SVGID_15_);}
</style>
<linearGradient id="SVGID_1_" gradientUnits="userSpaceOnUse" x1="1.0811" y1="264.3405" x2="20.3381" y2="264.3405">
	<stop  offset="0" style="stop-color:#6600CC"/>
	<stop  offset="1" style="stop-color:#00ACE6"/>
</linearGradient>
<path class="st0" d="M20.2,278.2c-1.9-9.8-3.1-19.7-3.6-29.7c-0.2-4.3-3.9-7.6-8.2-7.3c-4.3,0.2-7.6,3.9-7.3,8.2
	C1.7,260.1,3,270.7,5,281.2c0.7,3.6,3.9,6.3,7.6,6.3c0.5,0,1,0,1.5-0.1c2-0.4,3.8-1.6,5-3.3C20.1,282.3,20.6,280.2,20.2,278.2z"/>
<linearGradient id="SVGID_2_" gradientUnits="userSpaceOnUse" x1="41.9844" y1="384.5521" x2="78.0198" y2="384.5521">
	<stop  offset="0" style="stop-color:#6600CC"/>
	<stop  offset="1" style="stop-color:#00ACE6"/>
</linearGradient>
<path class="st1" d="M56.5,367.5c-2.5-3.6-7.5-4.5-11.1-2s-4.5,7.5-2,11.1c6.3,9.1,13.2,17.7,20.7,25.8c3,3.3,8.1,3.5,11.3,0.5
	c3.3-3,3.5-8.1,0.5-11.3C68.8,384,62.4,376,56.5,367.5z"/>
<linearGradient id="SVGID_3_" gradientUnits="userSpaceOnUse" x1="1.3662" y1="202.5111" x2="21.6778" y2="202.5111">
	<stop  offset="0" style="stop-color:#6600CC"/>
	<stop  offset="1" style="stop-color:#00ACE6"/>
</linearGradient>
<path class="st2" d="M8.6,225.6c0.2,0,0.4,0,0.6,0c4.1,0,7.4-3.1,7.8-7.1c0.8-10,2.3-19.9,4.5-29.6c0.9-4.2-1.7-8.3-5.9-9.3
	c-4.2-0.9-8.3,1.7-9.3,5.9c-2.4,10.5-4,21.1-4.9,31.8c-0.2,2.1,0.5,4.1,1.8,5.7C4.6,224.4,6.5,225.4,8.6,225.6z"/>
<linearGradient id="SVGID_4_" gradientUnits="userSpaceOnUse" x1="85.0864" y1="428.4113" x2="127.4" y2="428.4113">
	<stop  offset="0" style="stop-color:#6600CC"/>
	<stop  offset="1" style="stop-color:#00ACE6"/>
</linearGradient>
<path class="st3" d="M123.3,430.8c-8.8-5.4-17.2-11.4-25.1-18c-3.4-2.8-8.4-2.3-11.3,1.1c-2.8,3.4-2.3,8.4,1.1,11.3
	c8.5,7,17.5,13.5,26.9,19.3c2.4,1.6,5.6,1.8,8.2,0.4s4.2-4,4.3-6.9C127.4,435,125.8,432.3,123.3,430.8L123.3,430.8z"/>
<linearGradient id="SVGID_5_" gradientUnits="userSpaceOnUse" x1="15.0031" y1="146.8389" x2="39.8018" y2="146.8389">
	<stop  offset="0" style="stop-color:#6600CC"/>
	<stop  offset="1" style="stop-color:#00ACE6"/>
</linearGradient>
<path class="st4" d="M20.1,164.7c0.9,0.3,1.8,0.5,2.7,0.5c3.2,0,6.1-2,7.3-5c2.6-7,5.6-13.8,8.9-20.5c1.9-3.8,0.3-8.5-3.5-10.4
	c-3.8-1.9-8.4-0.4-10.4,3.4c-3.6,7.2-6.8,14.5-9.6,22C14,158.7,16,163.2,20.1,164.7z"/>
<linearGradient id="SVGID_6_" gradientUnits="userSpaceOnUse" x1="12.7672" y1="323.8959" x2="40.358" y2="323.8959">
	<stop  offset="0" style="stop-color:#6600CC"/>
	<stop  offset="1" style="stop-color:#00ACE6"/>
</linearGradient>
<path class="st5" d="M27.9,307.1c-1.4-4.1-5.8-6.2-9.9-4.8c-4.1,1.4-6.2,5.8-4.8,9.9c3.5,10.1,7.7,20,12.5,29.6
	c2,3.7,6.6,5.2,10.4,3.3c3.8-1.9,5.3-6.5,3.5-10.3C35,325.8,31.1,316.5,27.9,307.1z"/>
<linearGradient id="SVGID_7_" gradientUnits="userSpaceOnUse" x1="139.6424" y1="457.966" x2="185.5656" y2="457.966">
	<stop  offset="0" style="stop-color:#6600CC"/>
	<stop  offset="1" style="stop-color:#00ACE6"/>
</linearGradient>
<path class="st6" d="M179.7,455.6c-9.9-2.8-19.6-6.3-29.1-10.4c-4-1.6-8.6,0.3-10.3,4.2s0,8.6,3.9,10.4c10.1,4.4,20.5,8.2,31.2,11.2
	c0.7,0.2,1.4,0.3,2.2,0.3c4,0,7.4-2.9,7.9-6.9C186,460.5,183.6,456.7,179.7,455.6L179.7,455.6z"/>
<linearGradient id="SVGID_8_" gradientUnits="userSpaceOnUse" x1="35.1222" y1="284.1728" x2="60.1235" y2="284.1728">
	<stop  offset="0" style="stop-color:#6600CC"/>
	<stop  offset="1" style="stop-color:#00ACE6"/>
</linearGradient>
<path class="st7" d="M45.2,301.9c1.6,4,6.2,5.9,10.1,4.2c4-1.6,5.9-6.2,4.2-10.1c-3.8-9.2-6.8-18.6-9-28.3c-0.9-4.2-5.1-6.8-9.3-5.9
	s-6.8,5.1-5.9,9.3C37.8,281.6,41.1,291.9,45.2,301.9z"/>
<linearGradient id="SVGID_9_" gradientUnits="userSpaceOnUse" x1="41.157" y1="163.1889" x2="68.2221" y2="163.1889">
	<stop  offset="0" style="stop-color:#6600CC"/>
	<stop  offset="1" style="stop-color:#00ACE6"/>
</linearGradient>
<path class="st8" d="M46.6,184.9c0.8,0.2,1.5,0.4,2.3,0.4c3.4,0,6.4-2.2,7.4-5.4c3-9.5,6.7-18.7,11.1-27.6c1.9-3.8,0.4-8.5-3.4-10.4
	c-3.8-1.9-8.5-0.4-10.4,3.4c-4.8,9.6-8.8,19.6-12.1,29.9c-0.6,2-0.4,4.1,0.5,5.9C43,182.9,44.7,184.3,46.6,184.9z"/>
<linearGradient id="SVGID_10_" gradientUnits="userSpaceOnUse" x1="32.7" y1="225.9142" x2="51.2192" y2="225.9142">
	<stop  offset="0" style="stop-color:#6600CC"/>
	<stop  offset="1" style="stop-color:#00ACE6"/>
</linearGradient>
<path class="st9" d="M48.7,241.6v-1.5c0.1-9.6,0.9-19.2,2.4-28.7c0.5-2.9-0.6-5.7-2.8-7.6c-2.3-1.8-5.3-2.3-8-1.2s-4.6,3.5-5,6.4
	c-1.6,10.2-2.4,20.6-2.6,30.9v2.1c0,2.1,0.9,4.1,2.4,5.6s3.5,2.3,5.6,2.2C45.1,249.7,48.7,246.1,48.7,241.6z"/>
<linearGradient id="SVGID_11_" gradientUnits="userSpaceOnUse" x1="100.2623" y1="393.1176" x2="140.6983" y2="393.1176">
	<stop  offset="0" style="stop-color:#6600CC"/>
	<stop  offset="1" style="stop-color:#00ACE6"/>
</linearGradient>
<path class="st10" d="M137.4,396.7c-8.4-6-16.3-12.6-23.7-19.7c-3.2-2.9-8.2-2.8-11.2,0.4c-3,3.1-3,8.1,0.1,11.2
	c8,7.6,16.5,14.7,25.4,21.2c3.6,2.6,8.6,1.8,11.2-1.8C141.8,404.3,140.9,399.3,137.4,396.7z"/>
<linearGradient id="SVGID_12_" gradientUnits="userSpaceOnUse" x1="151.918" y1="425.9904" x2="197.4628" y2="425.9904">
	<stop  offset="0" style="stop-color:#6600CC"/>
	<stop  offset="1" style="stop-color:#00ACE6"/>
</linearGradient>
<path class="st11" d="M191.9,424.4c-9.7-3.1-19.2-7-28.3-11.6c-3.9-2-8.8-0.5-10.8,3.5c-2,3.9-0.5,8.8,3.5,10.8
	c9.9,5.1,20.2,9.3,30.8,12.6c4.2,1.3,8.7-1,10-5.2C198.4,430.2,196.1,425.7,191.9,424.4L191.9,424.4z"/>
<linearGradient id="SVGID_13_" gradientUnits="userSpaceOnUse" x1="60.1299" y1="345.7869" x2="94.5239" y2="345.7869">
	<stop  offset="0" style="stop-color:#6600CC"/>
	<stop  offset="1" style="stop-color:#00ACE6"/>
</linearGradient>
<path class="st12" d="M91.5,365.3c3.5-2.8,4-7.8,1.3-11.2c-6.4-8.1-12.3-16.5-17.6-25.4c-1.4-2.6-4.1-4.2-7-4.2s-5.7,1.6-7.1,4.2
	c-1.4,2.6-1.3,5.8,0.4,8.2c5.7,9.5,11.9,18.6,18.8,27.2C83.1,367.5,88.1,368.1,91.5,365.3L91.5,365.3z"/>
<linearGradient id="SVGID_14_" gradientUnits="userSpaceOnUse" x1="48.7384" y1="239.9212" x2="480.5132" y2="239.9212">
	<stop  offset="0" style="stop-color:#6600CC"/>
	<stop  offset="1" style="stop-color:#00ACE6"/>
</linearGradient>
<path class="st13" d="M240.7,0c-45.9-0.1-90.9,13.1-129.5,37.9L78.6,2.6c-2.1-2.3-5.3-3.1-8.3-2.2S65.2,3.9,64.8,7l-16,120
	c-0.3,2.5,0.5,5,2.3,6.7c1.8,1.8,4.3,2.6,6.8,2.2l112-16c2.9-0.4,5.4-2.4,6.4-5.2c1-2.8,0.4-5.9-1.7-8.1L144.5,74
	c69.9-40.6,157.6-33,219.6,18.8s84.8,136.9,57.2,212.8C393.6,381.5,321.5,432,240.7,432h-0.1c-6.3,0-12.6-0.4-18.9-1.2
	c-4.4-0.5-8.4,2.6-8.9,7s2.6,8.4,7,8.9c6.9,0.8,13.8,1.3,20.8,1.3h0.1c88.8,0.1,167.8-56.2,196.8-140.2c29-83.9,1.4-177-68.5-231.7
	s-166.9-59-241.4-10.6c-2,1.3-3.3,3.4-3.6,5.7c-0.3,2.3,0.5,4.7,2.1,6.4l26.4,28.6L66,118.6L78.4,26L104,53.7
	c2.7,2.9,7.1,3.4,10.4,1.2c79.5-54.2,184.7-51.6,261.4,6.5S483.6,220,452.9,311.2c-30.6,91.2-116,152.7-212.2,152.7
	c-10.3,0-20.6-0.7-30.8-2.1c-4.3-0.5-8.3,2.5-8.9,6.8c-0.6,4.3,2.4,8.3,6.7,9c88.8,12.2,177-26,228.8-99.2
	c51.7-73.2,58.4-169.1,17.2-248.8S330.3,0.1,240.7,0z"/>
<g>
	<linearGradient id="SVGID_15_" gradientUnits="userSpaceOnUse" x1="232.7" y1="207.9688" x2="328.5377" y2="207.9688">
		<stop  offset="0" style="stop-color:#6600CC"/>
		<stop  offset="1" style="stop-color:#00ACE6"/>
	</linearGradient>
	<path class="st14" d="M240.7,88c-4.4,0-8,3.6-8,8v144c0,2.1,0.8,4.2,2.3,5.7l80,80c3.1,3,8.1,3,11.2-0.1s3.1-8.1,0.1-11.2
		l-77.7-77.7V96C248.7,91.6,245.1,88,240.7,88z"/>
</g>
</svg>
