<?xml version="1.0" encoding="utf-8"?>
<!-- Generator: Adobe Illustrator 22.1.0, SVG Export Plug-In . SVG Version: 6.00 Build 0)  -->
<svg version="1.1" id="Camada_1" xmlns="http://www.w3.org/2000/svg" xmlns:xlink="http://www.w3.org/1999/xlink" x="0px" y="0px"
	 viewBox="0 0 480 480" style="enable-background:new 0 0 480 480;" xml:space="preserve">
<style type="text/css">
	.st0{fill:url(#SVGID_1_);}
</style>
<linearGradient id="SVGID_1_" gradientUnits="userSpaceOnUse" x1="7.9" y1="242" x2="472" y2="242" gradientTransform="matrix(1 0 0 -1 0 482)">
	<stop  offset="0" style="stop-color:#6600CC"/>
	<stop  offset="1" style="stop-color:#00ACE6"/>
</linearGradient>
<path class="st0" d="M472,136.5v-0.2c0-0.1,0-0.2,0-0.2s-0.1-0.2-0.1-0.3c0-0.9-0.2-1.7-0.5-2.5l-44-117.8
	C423.9,6.2,414.9,0,404.9,0H75.1c-10,0-19,6.2-22.5,15.6L8.5,133.2c-0.3,0.8-0.4,1.7-0.5,2.5c0,0.1-0.1,0.2-0.1,0.3v0.2v0.2v0.3v0.3
	c0.3,25.7,16.1,48.6,40,58v261c0,13.3,10.7,24,24,24h336c13.3,0,24-10.7,24-24V195.1c23.8-9.5,39.6-32.4,39.9-58c0-0.1,0-0.2,0-0.3
	C471.9,136.6,472,136.6,472,136.5z M67.5,21.3c1.2-3.2,4.2-5.3,7.6-5.3h329.8c3.4,0,6.4,2.1,7.6,5.2l40,106.8H27.6L67.5,21.3z
	 M343.3,144c-3.9,23.1-23.9,40-47.3,40s-43.4-16.9-47.3-40H343.3z M231.3,144c-3.9,23.1-23.9,40-47.3,40s-43.4-16.9-47.3-40H231.3z
	 M24.7,144h94.6c0,0.2-0.1,0.3-0.1,0.5c-0.4,2.4-1.1,4.8-1.9,7.2c-0.1,0.4-0.3,0.8-0.4,1.2c-0.8,2.3-1.9,4.5-3.1,6.7
	c-0.2,0.3-0.3,0.6-0.5,0.8c-1.3,2.2-2.7,4.3-4.4,6.3l-0.1,0.1c-1.6,1.9-3.4,3.8-5.3,5.4l-0.6,0.5c-1.9,1.6-3.9,3-6,4.3l-1,0.6
	c-2.1,1.2-4.3,2.3-6.5,3.1c-0.4,0.2-0.8,0.3-1.2,0.4c-2.3,0.9-4.8,1.5-7.2,2c-0.3,0.1-0.6,0.1-1,0.1c-2.7,0.5-5.4,0.7-8.1,0.8
	C48.6,184,28.6,167.1,24.7,144z M160,464V264c0-4.4,3.6-8,8-8h144c4.4,0,8,3.6,8,8v200H160z M416,456c0,4.4-3.6,8-8,8h-72V264
	c0-13.3-10.7-24-24-24H168c-13.3,0-24,10.7-24,24v200H72c-4.4,0-8-3.6-8-8V199.5c2.7,0.3,5.3,0.5,8,0.5c2.1,0,4.2-0.1,6.3-0.3
	c0.7-0.1,1.4-0.2,2.1-0.3c1.4-0.2,2.7-0.4,4.1-0.6c0.8-0.2,1.6-0.4,2.4-0.6c1.2-0.3,2.4-0.6,3.6-0.9c0.8-0.3,1.6-0.5,2.4-0.8
	c1.1-0.4,2.2-0.8,3.3-1.2c0.8-0.3,1.6-0.7,2.4-1.1c1-0.5,2-0.9,3-1.5c0.8-0.4,1.6-0.8,2.3-1.3c1-0.6,1.9-1.1,2.8-1.7
	c0.7-0.5,1.5-1,2.2-1.5c0.9-0.6,1.8-1.3,2.6-2c0.7-0.6,1.4-1.1,2.1-1.7c0.8-0.7,1.6-1.5,2.4-2.2c0.6-0.6,1.3-1.2,1.9-1.8
	c0.8-0.8,1.5-1.6,2.3-2.5c0.6-0.6,1.1-1.3,1.7-1.9c0.7-0.9,1.4-1.9,2.1-2.8c0.5-0.7,1-1.3,1.4-2c0.7-1.1,1.4-2.2,2-3.3
	c0.2-0.4,0.5-0.7,0.7-1.1c11.2,20.4,32.7,33.1,56,33.1s44.8-12.7,56-33.1c11.2,20.4,32.7,33.1,56,33.1s44.8-12.7,56-33.1
	c0.2,0.4,0.5,0.8,0.7,1.1c0.7,1.1,1.3,2.2,2,3.3c0.4,0.7,0.9,1.3,1.4,2c0.7,1,1.4,1.9,2.1,2.8c0.5,0.7,1.1,1.3,1.7,1.9
	c0.7,0.9,1.5,1.7,2.3,2.5c0.6,0.6,1.2,1.2,1.9,1.8c0.8,0.8,1.6,1.5,2.4,2.2c0.7,0.6,1.4,1.1,2.1,1.7c0.9,0.7,1.7,1.3,2.6,2
	c0.7,0.5,1.5,1,2.2,1.5c0.9,0.6,1.9,1.2,2.8,1.7c0.8,0.4,1.5,0.9,2.3,1.3c1,0.5,2,1,3,1.5c0.8,0.4,1.6,0.7,2.4,1.1
	c1.1,0.4,2.2,0.8,3.3,1.2c0.8,0.3,1.6,0.6,2.4,0.8c1.2,0.4,2.4,0.6,3.6,0.9c0.8,0.2,1.6,0.4,2.4,0.6c1.3,0.3,2.7,0.4,4.1,0.6
	c0.7,0.1,1.4,0.2,2.1,0.3c2.1,0.2,4.2,0.3,6.3,0.3c2.7,0,5.3-0.2,8-0.5V456H416z M421.7,182c-4.4,1.3-9.1,2-13.7,2
	c-2.7,0-5.4-0.3-8.1-0.7c-0.3-0.1-0.6-0.1-1-0.2c-2.4-0.5-4.9-1.1-7.2-2c-0.4-0.1-0.8-0.3-1.2-0.4c-2.3-0.9-4.4-1.9-6.5-3.1l-1-0.6
	c-2.1-1.3-4.1-2.7-6-4.3l-0.6-0.5c-1.9-1.7-3.7-3.5-5.3-5.4l-0.1-0.1c-1.6-2-3.1-4.1-4.4-6.3c-0.2-0.3-0.3-0.6-0.5-0.8
	c-1.2-2.1-2.2-4.4-3.1-6.7c-0.2-0.4-0.3-0.8-0.4-1.2c-0.8-2.3-1.4-4.7-1.9-7.2c0-0.2,0-0.3-0.1-0.5h94.6
	C452.4,162.1,439.3,176.9,421.7,182z"/>
</svg>
