<?xml version="1.0" encoding="utf-8"?>
<!-- Generator: Adobe Illustrator 22.1.0, SVG Export Plug-In . SVG Version: 6.00 Build 0)  -->
<svg version="1.1" id="Camada_1" xmlns="http://www.w3.org/2000/svg" xmlns:xlink="http://www.w3.org/1999/xlink" x="0px" y="0px"
	 viewBox="0 0 480 480" style="enable-background:new 0 0 480 480;" xml:space="preserve">
<style type="text/css">
	.st0{fill:url(#SVGID_1_);}
</style>
<linearGradient id="SVGID_1_" gradientUnits="userSpaceOnUse" x1="0" y1="239.9839" x2="480" y2="239.9839">
	<stop  offset="0" style="stop-color:#6600CC"/>
	<stop  offset="1" style="stop-color:#00ACE6"/>
</linearGradient>
<path class="st0" d="M408,24H72C32.3,24,0,56.3,0,96v208c0,39.7,32.3,72,72,72h22.2l-14.1,70.4c-0.6,3,0.6,6.1,3.1,8
	s5.8,2.1,8.5,0.7L242,376h166c39.7,0,72-32.3,72-72V96C480,56.3,447.7,24,408,24z M464,304c0,30.9-25.1,56-56,56H240
	c-1.3,0-2.6,0.3-3.7,0.9L99.1,433.1l12.7-63.5c0.5-2.4-0.1-4.8-1.6-6.7c-1.5-1.9-3.8-2.9-6.2-2.9H72c-30.9,0-56-25.1-56-56V96
	c0-30.9,25.1-56,56-56h336c30.9,0,56,25.1,56,56V304z"/>
</svg>
