<?xml version="1.0" encoding="utf-8"?>
<!-- Generator: Adobe Illustrator 22.1.0, SVG Export Plug-In . SVG Version: 6.00 Build 0)  -->
<svg version="1.1" id="Camada_1" xmlns="http://www.w3.org/2000/svg" xmlns:xlink="http://www.w3.org/1999/xlink" x="0px" y="0px"
	 viewBox="0 0 476 476" style="enable-background:new 0 0 476 476;" xml:space="preserve">
<style type="text/css">
	.st0{fill:url(#SVGID_1_);}
</style>
<linearGradient id="SVGID_1_" gradientUnits="userSpaceOnUse" x1="1.143563e-04" y1="238.7596" x2="475.9994" y2="238.7596">
	<stop  offset="0" style="stop-color:#6600CC"/>
	<stop  offset="1" style="stop-color:#00ACE6"/>
</linearGradient>
<path class="st0" d="M450.3,26.5c-34.3-34.3-89.9-34.3-124.2,0v0L40.9,311.6c-0.6,0.7-1.2,1.5-1.5,2.3c-0.1,0.2-0.2,0.4-0.3,0.7
	c-0.1,0.2-0.2,0.4-0.3,0.7L0.3,466.8c-0.7,2.7,0.1,5.7,2.1,7.7c2,2,4.9,2.8,7.7,2.1l151.5-38.6c0.2-0.1,0.4-0.2,0.7-0.3
	c0.2-0.1,0.5-0.2,0.7-0.3c0.9-0.4,1.6-0.9,2.3-1.5l285.1-285.1l0.1,0C484.6,116.4,484.6,60.8,450.3,26.5z M439,37.7
	c25.8,25.9,28.1,67.1,5.3,95.7l-101-101C371.9,9.6,413.1,11.9,439,37.7z M331.7,43.4L433.4,145l-28.6,28.6L303.1,72L331.7,43.4z
	 M28.7,419.6c12.6,5.7,22.7,15.8,28.4,28.4l-38.1,9.7L28.7,419.6z M72.7,444c-7.4-18.2-21.8-32.6-39.9-39.9l18.1-71.3l93.1,93.1
	L72.7,444z M159.5,418.9L57.9,317.2L291.8,83.3L393.4,185L159.5,418.9z"/>
</svg>
