<?xml version="1.0" encoding="utf-8"?>
<!-- Generator: Adobe Illustrator 22.1.0, SVG Export Plug-In . SVG Version: 6.00 Build 0)  -->
<svg version="1.1" id="Camada_1" xmlns="http://www.w3.org/2000/svg" xmlns:xlink="http://www.w3.org/1999/xlink" x="0px" y="0px"
	 viewBox="0 0 480 480" style="enable-background:new 0 0 480 480;" xml:space="preserve">
<style type="text/css">
	.st0{fill:url(#SVGID_1_);}
	.st1{fill:url(#SVGID_2_);}
</style>
<linearGradient id="SVGID_1_" gradientUnits="userSpaceOnUse" x1="0" y1="240" x2="480" y2="240">
	<stop  offset="0" style="stop-color:#6600CC"/>
	<stop  offset="1" style="stop-color:#00ACE6"/>
</linearGradient>
<path class="st0" d="M456,176h-52c-0.8-2.2-1.8-4.4-2.8-6.7l36.8-36.8c9.4-9.4,9.4-24.6,0-34L381.5,42c-9.4-9.4-24.6-9.4-34,0
	l-36.8,36.8c-2.3-1-4.5-1.9-6.7-2.8V24c0-13.3-10.7-24-24-24h-80c-13.3,0-24,10.7-24,24v52c-2.2,0.8-4.4,1.8-6.7,2.8L132.5,42
	c-9.4-9.4-24.6-9.4-34,0L42,98.5c-9.4,9.4-9.4,24.6,0,34l36.8,36.8c-1,2.3-1.9,4.5-2.8,6.7H24c-13.3,0-24,10.7-24,24v80
	c0,13.3,10.7,24,24,24h52c0.8,2.2,1.8,4.4,2.8,6.7L42,347.5c-9.4,9.4-9.4,24.6,0,34L98.5,438c9.4,9.4,24.6,9.4,34,0l36.8-36.8
	c2.3,1,4.5,1.9,6.7,2.8v52c0,13.3,10.7,24,24,24h80c13.3,0,24-10.7,24-24v-52c2.2-0.8,4.4-1.8,6.7-2.8l36.8,36.8
	c9.4,9.4,24.6,9.4,34,0l56.6-56.6c9.4-9.4,9.4-24.6,0-34l-36.8-36.8c1-2.3,1.9-4.5,2.8-6.7h52c13.3,0,24-10.7,24-24v-80
	C480,186.7,469.3,176,456,176z M464,280c0,4.4-3.6,8-8,8h-57.6c-3.4,0-6.5,2.2-7.6,5.4c-1.8,5.3-4,10.5-6.4,15.5
	c-1.4,3.1-0.8,6.7,1.6,9.1l40.7,40.7c1.5,1.5,2.4,3.5,2.4,5.7s-0.8,4.2-2.4,5.7l-56.6,56.6c-3.2,3-8.2,3-11.3,0l-40.7-40.7
	c-2.4-2.4-6-3.1-9.1-1.6c-5.1,2.4-10.2,4.6-15.5,6.4c-3.3,1.1-5.5,4.2-5.4,7.6V456c0,4.4-3.6,8-8,8h-80c-4.4,0-8-3.6-8-8v-57.6
	c0-3.4-2.2-6.5-5.4-7.6c-5.3-1.8-10.5-4-15.5-6.4c-3.1-1.4-6.7-0.8-9.1,1.6l-40.7,40.7c-3.2,3-8.2,3-11.3,0l-56.6-56.6
	c-1.5-1.5-2.4-3.5-2.4-5.7s0.8-4.2,2.4-5.7l40.7-40.7c2.4-2.4,3.1-6,1.6-9.1c-2.4-5.1-4.6-10.2-6.4-15.5c-1.1-3.3-4.2-5.5-7.6-5.4
	H24c-4.4,0-8-3.6-8-8v-80c0-4.4,3.6-8,8-8h57.6c3.4,0,6.5-2.2,7.6-5.4c1.8-5.3,4-10.5,6.4-15.5c1.4-3.1,0.8-6.7-1.6-9.1l-40.7-40.7
	c-1.5-1.5-2.4-3.5-2.4-5.7s0.8-4.2,2.4-5.7l56.6-56.6c3.2-3,8.2-3,11.3,0l40.7,40.7c2.4,2.4,6,3.1,9.1,1.6
	c5.1-2.4,10.2-4.6,15.5-6.4c3.3-1.1,5.5-4.2,5.4-7.6V24c0-4.4,3.6-8,8-8h80c4.4,0,8,3.6,8,8v57.6c0,3.4,2.2,6.5,5.4,7.6
	c5.3,1.8,10.5,4,15.5,6.4c3.1,1.4,6.7,0.8,9.1-1.6l40.7-40.7c3.2-3,8.2-3,11.3,0l56.6,56.6c1.5,1.5,2.4,3.5,2.4,5.7
	s-0.8,4.2-2.4,5.7l-40.7,40.7c-2.4,2.4-3.1,6-1.6,9.1c2.4,5.1,4.6,10.2,6.4,15.5c1.1,3.3,4.2,5.5,7.6,5.4H456c4.4,0,8,3.6,8,8V280z"
	/>
<linearGradient id="SVGID_2_" gradientUnits="userSpaceOnUse" x1="136" y1="240" x2="344" y2="240">
	<stop  offset="0" style="stop-color:#6600CC"/>
	<stop  offset="1" style="stop-color:#00ACE6"/>
</linearGradient>
<path class="st1" d="M240,136c-57.4,0-104,46.6-104,104s46.6,104,104,104s104-46.6,104-104C343.9,182.6,297.4,136.1,240,136z
	 M240,328c-48.6,0-88-39.4-88-88s39.4-88,88-88s88,39.4,88,88C327.9,288.6,288.6,327.9,240,328z"/>
</svg>
