<?xml version="1.0" encoding="utf-8"?>
<!-- Generator: Adobe Illustrator 24.0.1, SVG Export Plug-In . SVG Version: 6.00 Build 0)  -->
<svg version="1.1" id="Camada_1" focusable="false" xmlns="http://www.w3.org/2000/svg" xmlns:xlink="http://www.w3.org/1999/xlink"
	 x="0px" y="0px" viewBox="0 0 448 512" style="enable-background:new 0 0 448 512;" xml:space="preserve">
<style type="text/css">
	.st0{fill:none;stroke:#F40022;stroke-width:10;stroke-miterlimit:10;}
</style>
<path class="st0" d="M9,32v448h432V32H9z M244.09,381.4c0,43.6-24.69,63.5-60.65,63.5c-32.5,0-51.3-17.4-60.94-38.5l33.07-20.7
	c6.36,11.7,12.15,21.6,26.13,21.6c13.31,0,21.79-5.4,21.79-26.5V237.7h40.6L244.09,381.4L244.09,381.4z M340.14,444.9
	c-37.7,0-62.1-18.6-73.96-43l33.07-19.8c8.68,14.7,20.06,25.6,40.02,25.6c16.78,0,27.58-8.7,27.58-20.8c0-14.4-10.99-19.5-29.6-28
	l-10.13-4.5c-29.31-12.9-48.7-29.2-48.7-63.5c0-31.6,23.24-55.6,59.4-55.6c25.84,0,44.36,9.3,57.66,33.7l-31.63,21
	c-6.94-12.9-14.46-18-26.13-18c-11.86,0-19.38,7.8-19.38,18c0,12.6,7.52,17.7,24.98,25.6l10.13,4.5c34.52,15.3,53.9,31,53.9,66.2
	C407.35,424.1,378.61,444.9,340.14,444.9L340.14,444.9z"/>
</svg>
